<?xml version="1.0" encoding="utf-8"?>
<!-- Generator: Adobe Illustrator 15.0.2, SVG Export Plug-In  -->
<!DOCTYPE svg PUBLIC "-//W3C//DTD SVG 1.1//EN" "http://www.w3.org/Graphics/SVG/1.1/DTD/svg11.dtd" [
	<!ENTITY ns_flows "http://ns.adobe.com/Flows/1.0/">
]>
<svg version="1.1"
	 xmlns="http://www.w3.org/2000/svg" xmlns:xlink="http://www.w3.org/1999/xlink" xmlns:a="http://ns.adobe.com/AdobeSVGViewerExtensions/3.0/"
	 x="0px" y="0px" width="283px" height="283px" viewBox="-4.95 -4.946 283 283" enable-background="new -4.95 -4.946 283 283"
	 xml:space="preserve">
<defs>
</defs>
<rect x="6" y="6.009" display="none" fill="none" stroke="#ffffff" stroke-width="12" stroke-miterlimit="10" width="261.56" height="261.558"/>
<polygon display="none" fill="none" stroke="#ffffff" stroke-width="12" stroke-miterlimit="10" points="171.583,89.259 
	111.184,41.725 111.184,96.508 101.972,89.259 41.576,41.725 41.576,136.793 41.576,231.854 101.972,184.327 111.184,177.065 
	111.184,231.854 171.583,184.327 231.984,136.793 "/>
<rect x="6.006" y="6.003" display="none" fill="none" stroke="#ffffff" stroke-width="12" stroke-miterlimit="10" width="261.554" height="261.557"/>
<polygon display="none" fill="none" stroke="#ffffff" stroke-width="12" stroke-miterlimit="10" points="41.67,41.667 
	41.67,231.892 177.003,231.892 231.892,176.992 231.892,41.667 "/>
<polyline display="none" fill="none" stroke="#ffffff" stroke-width="12" stroke-miterlimit="10" points="88.773,136.032 
	120.779,172.212 184.785,101.34 "/>
<polyline display="none" fill="none" stroke="#ffffff" stroke-width="12" stroke-miterlimit="10" points="177.003,231.892 
	177.003,176.87 231.892,176.992 "/>
<rect x="6.006" y="6.003" fill="none" stroke="#ffffff" stroke-width="12" stroke-miterlimit="10" width="261.554" height="261.557"/>
<rect x="41.664" y="41.679" fill="none" stroke="#ffffff" stroke-width="12" stroke-miterlimit="10" width="190.228" height="190.224"/>
<path fill="none" stroke="#ffffff" stroke-width="12" stroke-miterlimit="10" d="M231.884,136.784
	c0,52.531-42.588,95.12-95.11,95.12c-52.521,0-95.11-42.589-95.11-95.12c0-52.521,42.589-95.104,95.11-95.104
	C189.296,41.679,231.884,84.262,231.884,136.784z"/>
<path fill="none" stroke="#ffffff" stroke-width="12" stroke-miterlimit="10" d="M136.476,136.784
	c-22.872-7.432-39.509-13.263-39.509-31.398c0-21.203,18.092-34.937,45.34-34.937c14.352,0,24.742,3.05,30.988,6.301
	 M136.476,136.784c23.713,8.401,38.108,10.223,42.43,29.317c4.406,19.424-16.014,37.027-49.081,37.027
	c-13.521,0-28.287-3.631-35.774-8.203"/>
<line fill="none" stroke="#ffffff" stroke-width="12" stroke-miterlimit="10" x1="136.78" y1="41.679" x2="136.78" y2="231.903"/>
<rect x="6" y="6.012" display="none" fill="none" stroke="#ffffff" stroke-width="12" stroke-miterlimit="10" width="261.556" height="261.548"/>
<rect x="41.658" y="41.683" display="none" fill="none" stroke="#ffffff" stroke-width="12" stroke-miterlimit="10" width="190.226" height="190.221"/>
<path display="none" fill="none" stroke="#ffffff" stroke-width="12" stroke-miterlimit="10" d="M163.71,101.037
	c0,14.92-12.096,27.009-27.009,27.009s-27.009-12.089-27.009-27.009c0-14.914,12.096-27.003,27.009-27.003
	S163.71,86.124,163.71,101.037z"/>
<line display="none" fill="none" stroke="#ffffff" stroke-width="12" stroke-miterlimit="10" x1="231.884" y1="231.903" x2="150.636" y2="124.122"/>
<line display="none" fill="none" stroke="#ffffff" stroke-width="12" stroke-miterlimit="10" x1="122.998" y1="124.281" x2="41.658" y2="231.903"/>
<line display="none" fill="none" stroke="#ffffff" stroke-width="12" stroke-miterlimit="10" x1="136.701" y1="74.034" x2="136.701" y2="41.927"/>
<path display="none" fill="none" stroke="#ffffff" stroke-width="12" stroke-miterlimit="10" d="M191.917,178.875
	c-15.586,11.074-34.631,17.591-55.204,17.591c-52.668,0-95.368-42.699-95.368-95.368"/>
<rect x="6" y="6" display="none" fill="none" stroke="#ffffff" stroke-width="12" stroke-miterlimit="10" width="261.56" height="261.556"/>
<polygon display="none" fill="none" stroke="#ffffff" stroke-width="12" stroke-miterlimit="10" points="41.664,231.892 
	41.664,41.658 176.998,41.658 231.892,96.551 231.892,231.892 "/>
<polyline display="none" fill="none" stroke="#ffffff" stroke-width="12" stroke-miterlimit="10" points="176.998,41.658 
	176.998,96.679 231.892,96.551 "/>
<line display="none" fill="none" stroke="#ffffff" stroke-width="12" stroke-miterlimit="10" x1="74.468" y1="136.774" x2="199.087" y2="136.774"/>
<line display="none" fill="none" stroke="#ffffff" stroke-width="12" stroke-miterlimit="10" x1="74.468" y1="156.028" x2="199.087" y2="156.028"/>
<line display="none" fill="none" stroke="#ffffff" stroke-width="12" stroke-miterlimit="10" x1="74.468" y1="175.269" x2="199.087" y2="175.269"/>
<rect x="6" y="6.009" display="none" fill="none" stroke="#ffffff" stroke-width="12" stroke-miterlimit="10" width="261.56" height="261.551"/>
<rect x="41.667" y="41.679" display="none" fill="none" stroke="#ffffff" stroke-width="12" stroke-miterlimit="10" width="190.225" height="190.224"/>
<line display="none" fill="none" stroke="#ffffff" stroke-width="12" stroke-miterlimit="10" x1="110.04" y1="95.16" x2="163.521" y2="95.16"/>
<line display="none" fill="none" stroke="#ffffff" stroke-width="12" stroke-miterlimit="10" x1="122.873" y1="69.496" x2="150.685" y2="69.496"/>
<line display="none" fill="none" stroke="#ffffff" stroke-width="12" stroke-miterlimit="10" x1="96.41" y1="122.42" x2="177.15" y2="122.42"/>
<line display="none" fill="none" stroke="#ffffff" stroke-width="12" stroke-miterlimit="10" x1="82.78" y1="149.671" x2="190.775" y2="149.671"/>
<line display="none" fill="none" stroke="#ffffff" stroke-width="12" stroke-miterlimit="10" x1="69.156" y1="176.919" x2="204.398" y2="176.919"/>
<line display="none" fill="none" stroke="#ffffff" stroke-width="12" stroke-miterlimit="10" x1="56.291" y1="204.179" x2="218.029" y2="204.179"/>
<polygon display="none" fill="none" stroke="#ffffff" stroke-width="12" stroke-linejoin="bevel" stroke-miterlimit="10" points="
	231.892,231.903 41.667,231.903 136.78,41.679 "/>
<line display="none" fill="none" stroke="#ffffff" stroke-width="12" stroke-miterlimit="10" x1="40.366" y1="231.903" x2="233.199" y2="231.903"/>
</svg>
