<?xml version="1.0" encoding="utf-8"?>
<!-- Generator: Adobe Illustrator 15.0.2, SVG Export Plug-In  -->
<!DOCTYPE svg PUBLIC "-//W3C//DTD SVG 1.1//EN" "http://www.w3.org/Graphics/SVG/1.1/DTD/svg11.dtd" [
	<!ENTITY ns_flows "http://ns.adobe.com/Flows/1.0/">
]>
<svg version="1.1"
	 xmlns="http://www.w3.org/2000/svg" xmlns:xlink="http://www.w3.org/1999/xlink" xmlns:a="http://ns.adobe.com/AdobeSVGViewerExtensions/3.0/"
	 x="0px" y="0px" width="567px" height="567px" viewBox="-57 -13.164 567 567" enable-background="new -57 -13.164 567 567"
	 xml:space="preserve">
<defs>
</defs>
<polygon fill="#231F20" points="46.457,493.731 46.457,486.926 26.644,486.926 19.813,486.926 0,486.926 0,493.731 19.813,493.731 
	19.813,532.993 0,532.993 0,539.823 46.457,539.823 46.457,532.993 26.644,532.993 26.644,493.731 "/>
<path fill="#231F20" d="M186.882,512.778c0,18.196-11.049,27.823-24.541,27.823c-13.942,0-23.75-10.818-23.75-26.801
	c0-16.774,10.429-27.751,24.529-27.751C177.559,486.05,186.882,497.111,186.882,512.778z M145.883,513.643
	c0,11.291,6.114,21.392,16.846,21.392c10.818,0,16.945-9.942,16.945-21.952c0-10.501-5.495-21.465-16.872-21.465
	C151.523,491.617,145.883,502.046,145.883,513.643z"/>
<path fill="#231F20" d="M283.599,486.926h6.807v25.465h0.243c1.41-2.03,2.819-3.915,4.156-5.653l16.142-19.812h8.46l-19.132,22.4
	l20.615,30.425h-8.06l-17.405-25.95l-5.02,5.797v20.153h-6.807V486.926z"/>
<path fill="#231F20" d="M437.796,539.531v-22.413l-16.701-30.411h7.767l7.451,14.572c2.043,4.001,3.598,7.209,5.251,10.904h0.146
	c1.508-3.452,3.307-6.903,5.349-10.904l7.584-14.572h7.779L444.7,517.046v22.485H437.796z"/>
<polygon points="311.786,103.937 311.786,115.977 311.786,346.438 311.786,358.484 323.83,358.484 427.755,358.484 427.755,346.438 
	323.83,346.438 323.83,115.977 427.755,115.977 427.755,103.937 323.83,103.937 "/>
<polygon points="346.438,138.572 346.438,150.624 346.438,311.798 346.438,323.83 358.472,323.83 427.755,323.83 427.755,311.798 
	358.472,311.798 358.472,150.624 427.755,150.624 427.755,138.572 358.472,138.572 "/>
<polygon points="381.08,173.219 381.08,185.265 381.08,277.15 381.08,289.189 393.138,289.189 427.755,289.189 427.755,277.15 
	393.138,277.15 393.138,185.265 427.755,185.265 427.755,173.219 393.138,173.219 "/>
<rect x="415.721" y="207.86" width="12.034" height="46.693"/>
<polygon points="289.189,393.138 427.755,393.138 427.755,381.08 289.189,381.08 289.189,81.334 427.755,81.334 427.755,69.283 
	289.189,69.283 277.132,69.283 277.132,81.334 277.132,381.08 277.132,393.138 "/>
<polygon points="150.624,358.484 150.624,346.438 150.624,115.977 150.624,103.937 138.566,103.937 34.641,103.937 34.641,115.977 
	138.566,115.977 138.566,346.438 34.641,346.438 34.641,358.484 138.566,358.484 "/>
<polygon points="115.982,323.83 115.982,311.798 115.982,150.624 115.982,138.572 103.937,138.572 34.641,138.572 34.641,150.624 
	103.937,150.624 103.937,311.798 34.641,311.798 34.641,323.83 103.937,323.83 "/>
<polygon points="81.329,289.189 81.329,277.15 81.329,185.265 81.329,173.219 69.283,173.219 34.641,173.219 34.641,185.265 
	69.283,185.265 69.283,277.15 34.641,277.15 34.641,289.189 69.283,289.189 "/>
<rect x="34.641" y="207.86" width="12.058" height="46.693"/>
<path d="M450.352,0H12.058H0v12.051v438.312v12.058h103.937h34.629h311.786h12.069V0H450.352z M450.352,415.721H254.548V46.693
	h195.804V415.721z M12.058,46.693h195.791v369.028H12.058V46.693z M138.566,450.363h-34.629H12.058v-22.596h195.791h12.058v-12.047
	V46.693V34.635h-12.058H12.058V12.051h438.294v22.584H254.548h-12.046v12.058v369.028v12.047h12.046h195.804v22.596H138.566z"/>
<polygon points="173.207,69.283 34.641,69.283 34.641,81.334 173.207,81.334 173.207,381.08 34.641,381.08 34.641,393.138 
	173.207,393.138 185.265,393.138 185.265,381.08 185.265,81.334 185.265,69.283 "/>
</svg>
