<?xml version="1.0" encoding="utf-8"?>
<!-- Generator: Adobe Illustrator 15.0.2, SVG Export Plug-In  -->
<!DOCTYPE svg PUBLIC "-//W3C//DTD SVG 1.1//EN" "http://www.w3.org/Graphics/SVG/1.1/DTD/svg11.dtd" [
	<!ENTITY ns_flows "http://ns.adobe.com/Flows/1.0/">
]>
<svg version="1.1"
	 xmlns="http://www.w3.org/2000/svg" xmlns:xlink="http://www.w3.org/1999/xlink" xmlns:a="http://ns.adobe.com/AdobeSVGViewerExtensions/3.0/"
	 x="0px" y="0px" width="2409px" height="680px" viewBox="-0.475 0 2409 680" enable-background="new -0.475 0 2409 680"
	 xml:space="preserve">
<defs>
</defs>
<rect x="307.774" y="569.031" fill="none" width="1156.499" height="304.031"/>
<text transform="matrix(1 0 0 1 307.7749 593.3789)"><tspan x="0" y="0" fill="#FFFFFF" font-family="'MyriadPro-Regular'" font-size="34.2949">В штате работают выпускники и профессора Электроэнергетики </tspan><tspan x="0" y="41.154" fill="#FFFFFF" font-family="'MyriadPro-Regular'" font-size="34.2949">Санкт-Петербургского политехнического университета Петра Великого</tspan></text>
<rect x="1683.345" y="114.792" fill="none" stroke="#FFFFFF" stroke-width="6" stroke-miterlimit="10" width="12.858" height="18.006"/>
<rect x="1687.756" y="85.362" fill="none" stroke="#FFFFFF" stroke-width="6" stroke-miterlimit="10" width="8.447" height="29.431"/>
<rect x="1706.767" y="114.792" fill="none" stroke="#FFFFFF" stroke-width="6" stroke-miterlimit="10" width="12.858" height="18.006"/>
<rect x="1711.18" y="85.362" fill="none" stroke="#FFFFFF" stroke-width="6" stroke-miterlimit="10" width="8.445" height="29.431"/>
<rect x="1730.185" y="114.792" fill="none" stroke="#FFFFFF" stroke-width="6" stroke-miterlimit="10" width="12.859" height="18.006"/>
<rect x="1734.598" y="85.362" fill="none" stroke="#FFFFFF" stroke-width="6" stroke-miterlimit="10" width="8.446" height="29.431"/>
<rect x="1753.607" y="114.792" fill="none" stroke="#FFFFFF" stroke-width="6" stroke-miterlimit="10" width="12.856" height="18.006"/>
<rect x="1758.018" y="85.362" fill="none" stroke="#FFFFFF" stroke-width="6" stroke-miterlimit="10" width="8.446" height="29.431"/>
<rect x="1777.029" y="114.792" fill="none" stroke="#FFFFFF" stroke-width="6" stroke-miterlimit="10" width="12.856" height="18.006"/>
<rect x="1781.438" y="85.362" fill="none" stroke="#FFFFFF" stroke-width="6" stroke-miterlimit="10" width="8.448" height="29.431"/>
<rect x="1800.449" y="114.792" fill="none" stroke="#FFFFFF" stroke-width="6" stroke-miterlimit="10" width="12.858" height="18.006"/>
<rect x="1804.855" y="85.362" fill="none" stroke="#FFFFFF" stroke-width="6" stroke-miterlimit="10" width="8.452" height="29.431"/>
<rect x="1823.868" y="114.792" fill="none" stroke="#FFFFFF" stroke-width="6" stroke-miterlimit="10" width="12.86" height="18.006"/>
<rect x="1828.274" y="85.362" fill="none" stroke="#FFFFFF" stroke-width="6" stroke-miterlimit="10" width="8.454" height="29.431"/>
<rect x="1847.29" y="114.792" fill="none" stroke="#FFFFFF" stroke-width="6" stroke-miterlimit="10" width="12.856" height="18.006"/>
<rect x="1851.699" y="85.362" fill="none" stroke="#FFFFFF" stroke-width="6" stroke-miterlimit="10" width="8.447" height="29.431"/>
<rect x="1870.709" y="114.792" fill="none" stroke="#FFFFFF" stroke-width="6" stroke-miterlimit="10" width="12.857" height="18.006"/>
<rect x="1875.121" y="85.362" fill="none" stroke="#FFFFFF" stroke-width="6" stroke-miterlimit="10" width="8.445" height="29.431"/>
<rect x="1894.127" y="114.792" fill="none" stroke="#FFFFFF" stroke-width="6" stroke-miterlimit="10" width="12.861" height="18.006"/>
<rect x="1898.543" y="85.362" fill="none" stroke="#FFFFFF" stroke-width="6" stroke-miterlimit="10" width="8.445" height="29.431"/>
<rect x="1917.552" y="114.792" fill="none" stroke="#FFFFFF" stroke-width="6" stroke-miterlimit="10" width="12.858" height="18.006"/>
<rect x="1921.961" y="85.362" fill="none" stroke="#FFFFFF" stroke-width="6" stroke-miterlimit="10" width="8.449" height="29.431"/>
<rect x="1940.971" y="114.792" fill="none" stroke="#FFFFFF" stroke-width="6" stroke-miterlimit="10" width="12.857" height="18.006"/>
<rect x="1945.381" y="85.362" fill="none" stroke="#FFFFFF" stroke-width="6" stroke-miterlimit="10" width="8.447" height="29.431"/>
<rect x="1964.394" y="114.792" fill="none" stroke="#FFFFFF" stroke-width="6" stroke-miterlimit="10" width="12.859" height="18.006"/>
<rect x="1968.802" y="85.362" fill="none" stroke="#FFFFFF" stroke-width="6" stroke-miterlimit="10" width="8.451" height="29.431"/>
<rect x="1987.814" y="114.792" fill="none" stroke="#FFFFFF" stroke-width="6" stroke-miterlimit="10" width="12.856" height="18.006"/>
<rect x="1992.22" y="85.362" fill="none" stroke="#FFFFFF" stroke-width="6" stroke-miterlimit="10" width="8.451" height="29.431"/>
<rect x="2011.23" y="114.792" fill="none" stroke="#FFFFFF" stroke-width="6" stroke-miterlimit="10" width="12.859" height="18.006"/>
<rect x="2015.642" y="85.362" fill="none" stroke="#FFFFFF" stroke-width="6" stroke-miterlimit="10" width="8.448" height="29.431"/>
<rect x="1644.956" y="481.758" fill="none" stroke="#FFFFFF" stroke-width="6" stroke-miterlimit="10" width="18.004" height="12.857"/>
<rect x="1615.529" y="481.758" fill="none" stroke="#FFFFFF" stroke-width="6" stroke-miterlimit="10" width="29.427" height="8.447"/>
<rect x="1644.956" y="458.338" fill="none" stroke="#FFFFFF" stroke-width="6" stroke-miterlimit="10" width="18.004" height="12.857"/>
<rect x="1615.529" y="458.338" fill="none" stroke="#FFFFFF" stroke-width="6" stroke-miterlimit="10" width="29.427" height="8.447"/>
<rect x="1644.956" y="434.918" fill="none" stroke="#FFFFFF" stroke-width="6" stroke-miterlimit="10" width="18.004" height="12.857"/>
<rect x="1615.529" y="434.918" fill="none" stroke="#FFFFFF" stroke-width="6" stroke-miterlimit="10" width="29.427" height="8.447"/>
<rect x="1644.956" y="411.494" fill="none" stroke="#FFFFFF" stroke-width="6" stroke-miterlimit="10" width="18.004" height="12.859"/>
<rect x="1615.529" y="411.494" fill="none" stroke="#FFFFFF" stroke-width="6" stroke-miterlimit="10" width="29.427" height="8.449"/>
<rect x="1644.956" y="388.076" fill="none" stroke="#FFFFFF" stroke-width="6" stroke-miterlimit="10" width="18.004" height="12.857"/>
<rect x="1615.529" y="388.076" fill="none" stroke="#FFFFFF" stroke-width="6" stroke-miterlimit="10" width="29.427" height="8.447"/>
<rect x="1644.956" y="364.656" fill="none" stroke="#FFFFFF" stroke-width="6" stroke-miterlimit="10" width="18.004" height="12.857"/>
<rect x="1615.529" y="364.656" fill="none" stroke="#FFFFFF" stroke-width="6" stroke-miterlimit="10" width="29.427" height="8.447"/>
<rect x="1644.956" y="341.236" fill="none" stroke="#FFFFFF" stroke-width="6" stroke-miterlimit="10" width="18.004" height="12.859"/>
<rect x="1615.529" y="341.236" fill="none" stroke="#FFFFFF" stroke-width="6" stroke-miterlimit="10" width="29.427" height="8.449"/>
<rect x="1644.956" y="317.813" fill="none" stroke="#FFFFFF" stroke-width="6" stroke-miterlimit="10" width="18.004" height="12.859"/>
<rect x="1615.529" y="317.813" fill="none" stroke="#FFFFFF" stroke-width="6" stroke-miterlimit="10" width="29.427" height="8.448"/>
<rect x="1644.956" y="294.395" fill="none" stroke="#FFFFFF" stroke-width="6" stroke-miterlimit="10" width="18.004" height="12.857"/>
<rect x="1615.529" y="294.395" fill="none" stroke="#FFFFFF" stroke-width="6" stroke-miterlimit="10" width="29.427" height="8.448"/>
<rect x="1644.956" y="270.975" fill="none" stroke="#FFFFFF" stroke-width="6" stroke-miterlimit="10" width="18.004" height="12.858"/>
<rect x="1615.529" y="270.975" fill="none" stroke="#FFFFFF" stroke-width="6" stroke-miterlimit="10" width="29.427" height="8.448"/>
<rect x="1644.956" y="247.551" fill="none" stroke="#FFFFFF" stroke-width="6" stroke-miterlimit="10" width="18.004" height="12.858"/>
<rect x="1615.529" y="247.551" fill="none" stroke="#FFFFFF" stroke-width="6" stroke-miterlimit="10" width="29.427" height="8.449"/>
<rect x="1644.956" y="224.132" fill="none" stroke="#FFFFFF" stroke-width="6" stroke-miterlimit="10" width="18.004" height="12.859"/>
<rect x="1615.529" y="224.132" fill="none" stroke="#FFFFFF" stroke-width="6" stroke-miterlimit="10" width="29.427" height="8.449"/>
<rect x="1644.956" y="200.712" fill="none" stroke="#FFFFFF" stroke-width="6" stroke-miterlimit="10" width="18.004" height="12.858"/>
<rect x="1615.529" y="200.712" fill="none" stroke="#FFFFFF" stroke-width="6" stroke-miterlimit="10" width="29.427" height="8.448"/>
<rect x="1644.956" y="177.293" fill="none" stroke="#FFFFFF" stroke-width="6" stroke-miterlimit="10" width="18.004" height="12.858"/>
<rect x="1615.529" y="177.293" fill="none" stroke="#FFFFFF" stroke-width="6" stroke-miterlimit="10" width="29.427" height="8.447"/>
<rect x="1644.956" y="153.87" fill="none" stroke="#FFFFFF" stroke-width="6" stroke-miterlimit="10" width="18.004" height="12.859"/>
<rect x="1615.529" y="153.87" fill="none" stroke="#FFFFFF" stroke-width="6" stroke-miterlimit="10" width="29.427" height="8.448"/>
<rect x="2010.804" y="513.021" fill="none" stroke="#FFFFFF" stroke-width="6" stroke-miterlimit="10" width="12.859" height="18.004"/>
<rect x="2010.804" y="531.025" fill="none" stroke="#FFFFFF" stroke-width="6" stroke-miterlimit="10" width="8.449" height="29.432"/>
<rect x="1987.384" y="513.021" fill="none" stroke="#FFFFFF" stroke-width="6" stroke-miterlimit="10" width="12.86" height="18.004"/>
<rect x="1987.384" y="531.025" fill="none" stroke="#FFFFFF" stroke-width="6" stroke-miterlimit="10" width="8.444" height="29.432"/>
<rect x="1963.965" y="513.021" fill="none" stroke="#FFFFFF" stroke-width="6" stroke-miterlimit="10" width="12.857" height="18.004"/>
<rect x="1963.965" y="531.025" fill="none" stroke="#FFFFFF" stroke-width="6" stroke-miterlimit="10" width="8.445" height="29.432"/>
<rect x="1940.543" y="513.021" fill="none" stroke="#FFFFFF" stroke-width="6" stroke-miterlimit="10" width="12.858" height="18.004"/>
<rect x="1940.543" y="531.025" fill="none" stroke="#FFFFFF" stroke-width="6" stroke-miterlimit="10" width="8.448" height="29.432"/>
<rect x="1917.122" y="513.021" fill="none" stroke="#FFFFFF" stroke-width="6" stroke-miterlimit="10" width="12.858" height="18.004"/>
<rect x="1917.122" y="531.025" fill="none" stroke="#FFFFFF" stroke-width="6" stroke-miterlimit="10" width="8.447" height="29.432"/>
<rect x="1893.701" y="513.021" fill="none" stroke="#FFFFFF" stroke-width="6" stroke-miterlimit="10" width="12.857" height="18.004"/>
<rect x="1893.701" y="531.025" fill="none" stroke="#FFFFFF" stroke-width="6" stroke-miterlimit="10" width="8.45" height="29.432"/>
<rect x="1870.282" y="513.021" fill="none" stroke="#FFFFFF" stroke-width="6" stroke-miterlimit="10" width="12.856" height="18.004"/>
<rect x="1870.282" y="531.025" fill="none" stroke="#FFFFFF" stroke-width="6" stroke-miterlimit="10" width="8.45" height="29.432"/>
<rect x="1846.86" y="513.021" fill="none" stroke="#FFFFFF" stroke-width="6" stroke-miterlimit="10" width="12.858" height="18.004"/>
<rect x="1846.86" y="531.025" fill="none" stroke="#FFFFFF" stroke-width="6" stroke-miterlimit="10" width="8.448" height="29.432"/>
<rect x="1823.441" y="513.021" fill="none" stroke="#FFFFFF" stroke-width="6" stroke-miterlimit="10" width="12.857" height="18.004"/>
<rect x="1823.441" y="531.025" fill="none" stroke="#FFFFFF" stroke-width="6" stroke-miterlimit="10" width="8.445" height="29.432"/>
<rect x="1800.022" y="513.021" fill="none" stroke="#FFFFFF" stroke-width="6" stroke-miterlimit="10" width="12.858" height="18.004"/>
<rect x="1800.022" y="531.025" fill="none" stroke="#FFFFFF" stroke-width="6" stroke-miterlimit="10" width="8.442" height="29.432"/>
<rect x="1776.599" y="513.021" fill="none" stroke="#FFFFFF" stroke-width="6" stroke-miterlimit="10" width="12.857" height="18.004"/>
<rect x="1776.599" y="531.025" fill="none" stroke="#FFFFFF" stroke-width="6" stroke-miterlimit="10" width="8.448" height="29.432"/>
<rect x="1753.18" y="513.021" fill="none" stroke="#FFFFFF" stroke-width="6" stroke-miterlimit="10" width="12.858" height="18.004"/>
<rect x="1753.18" y="531.025" fill="none" stroke="#FFFFFF" stroke-width="6" stroke-miterlimit="10" width="8.448" height="29.432"/>
<rect x="1729.755" y="513.021" fill="none" stroke="#FFFFFF" stroke-width="6" stroke-miterlimit="10" width="12.858" height="18.004"/>
<rect x="1729.755" y="531.025" fill="none" stroke="#FFFFFF" stroke-width="6" stroke-miterlimit="10" width="8.454" height="29.432"/>
<rect x="1706.337" y="513.021" fill="none" stroke="#FFFFFF" stroke-width="6" stroke-miterlimit="10" width="12.857" height="18.004"/>
<rect x="1706.337" y="531.025" fill="none" stroke="#FFFFFF" stroke-width="6" stroke-miterlimit="10" width="8.451" height="29.432"/>
<rect x="1682.918" y="513.021" fill="none" stroke="#FFFFFF" stroke-width="6" stroke-miterlimit="10" width="12.857" height="18.004"/>
<rect x="1682.918" y="531.025" fill="none" stroke="#FFFFFF" stroke-width="6" stroke-miterlimit="10" width="8.449" height="29.432"/>
<rect x="2043.188" y="150.87" fill="none" stroke="#FFFFFF" stroke-width="6" stroke-miterlimit="10" width="18.004" height="12.859"/>
<rect x="2061.191" y="155.279" fill="none" stroke="#FFFFFF" stroke-width="6" stroke-miterlimit="10" width="29.432" height="8.449"/>
<rect x="2043.188" y="174.292" fill="none" stroke="#FFFFFF" stroke-width="6" stroke-miterlimit="10" width="18.004" height="12.858"/>
<rect x="2061.191" y="178.702" fill="none" stroke="#FFFFFF" stroke-width="6" stroke-miterlimit="10" width="29.432" height="8.449"/>
<rect x="2043.188" y="197.712" fill="none" stroke="#FFFFFF" stroke-width="6" stroke-miterlimit="10" width="18.004" height="12.858"/>
<rect x="2061.191" y="202.122" fill="none" stroke="#FFFFFF" stroke-width="6" stroke-miterlimit="10" width="29.432" height="8.448"/>
<rect x="2043.188" y="221.132" fill="none" stroke="#FFFFFF" stroke-width="6" stroke-miterlimit="10" width="18.004" height="12.858"/>
<rect x="2061.191" y="225.542" fill="none" stroke="#FFFFFF" stroke-width="6" stroke-miterlimit="10" width="29.432" height="8.449"/>
<rect x="2043.188" y="244.551" fill="none" stroke="#FFFFFF" stroke-width="6" stroke-miterlimit="10" width="18.004" height="12.858"/>
<rect x="2061.191" y="248.96" fill="none" stroke="#FFFFFF" stroke-width="6" stroke-miterlimit="10" width="29.432" height="8.449"/>
<rect x="2043.188" y="267.974" fill="none" stroke="#FFFFFF" stroke-width="6" stroke-miterlimit="10" width="18.004" height="12.858"/>
<rect x="2061.191" y="272.383" fill="none" stroke="#FFFFFF" stroke-width="6" stroke-miterlimit="10" width="29.432" height="8.449"/>
<rect x="2043.188" y="291.394" fill="none" stroke="#FFFFFF" stroke-width="6" stroke-miterlimit="10" width="18.004" height="12.857"/>
<rect x="2061.191" y="295.804" fill="none" stroke="#FFFFFF" stroke-width="6" stroke-miterlimit="10" width="29.432" height="8.448"/>
<rect x="2043.188" y="314.813" fill="none" stroke="#FFFFFF" stroke-width="6" stroke-miterlimit="10" width="18.004" height="12.859"/>
<rect x="2061.191" y="319.224" fill="none" stroke="#FFFFFF" stroke-width="6" stroke-miterlimit="10" width="29.432" height="8.448"/>
<rect x="2043.188" y="338.236" fill="none" stroke="#FFFFFF" stroke-width="6" stroke-miterlimit="10" width="18.004" height="12.858"/>
<rect x="2061.191" y="342.646" fill="none" stroke="#FFFFFF" stroke-width="6" stroke-miterlimit="10" width="29.432" height="8.447"/>
<rect x="2043.188" y="361.656" fill="none" stroke="#FFFFFF" stroke-width="6" stroke-miterlimit="10" width="18.004" height="12.857"/>
<rect x="2061.191" y="366.064" fill="none" stroke="#FFFFFF" stroke-width="6" stroke-miterlimit="10" width="29.432" height="8.449"/>
<rect x="2043.188" y="385.076" fill="none" stroke="#FFFFFF" stroke-width="6" stroke-miterlimit="10" width="18.004" height="12.857"/>
<rect x="2061.191" y="389.484" fill="none" stroke="#FFFFFF" stroke-width="6" stroke-miterlimit="10" width="29.432" height="8.449"/>
<rect x="2043.188" y="408.494" fill="none" stroke="#FFFFFF" stroke-width="6" stroke-miterlimit="10" width="18.004" height="12.857"/>
<rect x="2061.191" y="412.904" fill="none" stroke="#FFFFFF" stroke-width="6" stroke-miterlimit="10" width="29.432" height="8.447"/>
<rect x="2043.188" y="431.918" fill="none" stroke="#FFFFFF" stroke-width="6" stroke-miterlimit="10" width="18.004" height="12.857"/>
<rect x="2061.191" y="436.326" fill="none" stroke="#FFFFFF" stroke-width="6" stroke-miterlimit="10" width="29.432" height="8.449"/>
<rect x="2043.188" y="455.336" fill="none" stroke="#FFFFFF" stroke-width="6" stroke-miterlimit="10" width="18.004" height="12.859"/>
<rect x="2061.191" y="459.746" fill="none" stroke="#FFFFFF" stroke-width="6" stroke-miterlimit="10" width="29.432" height="8.449"/>
<rect x="2043.188" y="478.758" fill="none" stroke="#FFFFFF" stroke-width="6" stroke-miterlimit="10" width="18.004" height="12.857"/>
<rect x="2061.191" y="483.168" fill="none" stroke="#FFFFFF" stroke-width="6" stroke-miterlimit="10" width="29.432" height="8.447"/>
<polygon fill="none" stroke="#FFFFFF" stroke-width="6" stroke-miterlimit="10" points="1602.006,71.078 2105.668,71.078 
	2105.668,576.836 1655.034,576.836 1602.006,515.82 "/>
<polyline fill="none" stroke="#FFFFFF" stroke-width="6" stroke-miterlimit="10" points="1948.991,576.836 1948.991,600.838 
	1972.41,600.838 1972.41,632.555 1917.122,632.555 1917.122,600.838 1948.991,600.838 "/>
<rect x="1995.828" y="600.838" fill="none" stroke="#FFFFFF" stroke-width="6" stroke-miterlimit="10" width="109.84" height="31.717"/>
<rect x="1696.231" y="589.314" fill="none" stroke="#FFFFFF" stroke-width="6" stroke-miterlimit="10" width="109.84" height="43.24"/>
<line fill="none" stroke="#FFFFFF" stroke-width="6" stroke-miterlimit="10" x1="2052.192" y1="600.838" x2="2052.192" y2="632.555"/>
<rect x="1653.957" y="589.314" fill="none" stroke="#FFFFFF" stroke-width="6" stroke-miterlimit="10" width="29.85" height="43.24"/>
<polyline fill="none" stroke="#FFFFFF" stroke-width="6" stroke-miterlimit="10" points="2118.083,496.215 2118.083,442.063 
	2259.25,442.063 2259.25,496.215 2118.083,496.215 "/>
<line fill="none" stroke="#FFFFFF" stroke-width="6" stroke-miterlimit="10" x1="2118.146" y1="132.798" x2="2105.668" y2="132.798"/>
<line fill="none" stroke="#FFFFFF" stroke-width="6" stroke-miterlimit="10" x1="2137.164" y1="563.469" x2="2105.668" y2="563.469"/>
<line fill="none" stroke="#FFFFFF" stroke-width="6" stroke-miterlimit="10" x1="1986.553" y1="58.598" x2="1986.553" y2="71.078"/>
<line fill="none" stroke="#FFFFFF" stroke-width="6" stroke-miterlimit="10" x1="1668.88" y1="576.836" x2="1668.88" y2="589.314"/>
<rect x="1986.553" y="38.286" fill="none" stroke="#FFFFFF" stroke-width="6" stroke-miterlimit="10" width="119.115" height="21.863"/>
<polyline fill="none" stroke="#FFFFFF" stroke-width="6" stroke-miterlimit="10" points="2105.668,514.428 2118.146,514.428 
	2118.146,563.469 2171.962,563.469 2171.962,497.439 "/>
<polyline fill="none" stroke="#FFFFFF" stroke-width="6" stroke-miterlimit="10" points="2118.146,514.428 2118.146,496.215 
	2105.668,496.215 "/>
<polyline fill="none" stroke="#FFFFFF" stroke-width="6" stroke-miterlimit="10" points="2118.146,531.418 2171.962,531.418 
	2183.394,531.418 "/>
<rect x="2183.394" y="514.428" fill="none" stroke="#FFFFFF" stroke-width="6" stroke-miterlimit="10" width="75.856" height="32.197"/>
<rect x="2121.102" y="576.836" fill="none" stroke="#FFFFFF" stroke-width="6" stroke-miterlimit="10" width="138.297" height="55.719"/>
<rect x="2154.248" y="597.883" fill="none" stroke="#FFFFFF" stroke-width="6" stroke-miterlimit="10" width="72.006" height="20.955"/>
<rect x="2121.102" y="576.836" fill="none" stroke="#FFFFFF" stroke-width="6" stroke-miterlimit="10" width="19.431" height="21.047"/>
<rect x="2239.971" y="576.836" fill="none" stroke="#FFFFFF" stroke-width="6" stroke-miterlimit="10" width="19.428" height="21.047"/>
<rect x="2118.083" y="38.286" fill="none" stroke="#FFFFFF" stroke-width="6" stroke-miterlimit="10" width="141.167" height="94.513"/>
<polygon fill="#FFFFFF" points="1751.026,444.092 1751.026,440.539 1740.7,440.539 1737.144,440.539 1726.816,440.539 
	1726.816,444.092 1737.144,444.092 1737.144,464.549 1726.816,464.549 1726.816,468.102 1751.026,468.102 1751.026,464.549 
	1740.7,464.549 1740.7,444.092 "/>
<path fill="#FFFFFF" d="M1824.195,454.018c0,9.477-5.76,14.498-12.785,14.498c-7.271,0-12.375-5.637-12.375-13.969
	c0-8.738,5.434-14.455,12.781-14.455C1819.336,440.092,1824.195,445.846,1824.195,454.018z M1802.834,454.467
	c0,5.881,3.184,11.15,8.78,11.15c5.64,0,8.817-5.188,8.817-11.439c0-5.471-2.854-11.191-8.775-11.191
	C1805.774,442.986,1802.834,448.418,1802.834,454.467z"/>
<path fill="#FFFFFF" d="M1874.587,440.539h3.552v13.273h0.125c0.728-1.063,1.465-2.037,2.163-2.943l8.413-10.33h4.411l-9.966,11.68
	l10.74,15.846h-4.204l-9.068-13.518l-2.614,3.021v10.496h-3.552V440.539z"/>
<path fill="#FFFFFF" d="M1954.936,467.953v-11.678l-8.7-15.848h4.046l3.88,7.596c1.06,2.082,1.877,3.758,2.739,5.68h0.077
	c0.78-1.803,1.718-3.598,2.779-5.68l3.96-7.596h4.046l-9.229,15.807v11.719H1954.936z"/>
<polygon fill="#FFFFFF" points="1889.273,240.985 1889.273,247.259 1889.273,367.338 1889.273,373.617 1895.563,373.617 
	1949.706,373.617 1949.706,367.338 1895.563,367.338 1895.563,247.259 1949.706,247.259 1949.706,240.985 1895.563,240.985 "/>
<polygon fill="#FFFFFF" points="1907.329,259.033 1907.329,265.311 1907.329,349.289 1907.329,355.564 1913.607,355.564 
	1949.706,355.564 1949.706,349.289 1913.607,349.289 1913.607,265.311 1949.706,265.311 1949.706,259.033 1913.607,259.033 "/>
<polygon fill="#FFFFFF" points="1925.384,277.084 1925.384,283.36 1925.384,331.241 1925.384,337.517 1931.66,337.517 
	1949.706,337.517 1949.706,331.241 1931.66,331.241 1931.66,283.36 1949.706,283.36 1949.706,277.084 1931.66,277.084 "/>
<rect x="1943.433" y="295.137" fill="#FFFFFF" width="6.273" height="24.331"/>
<polygon fill="#FFFFFF" points="1877.502,391.668 1949.706,391.668 1949.706,385.389 1877.502,385.389 1877.502,229.212 
	1949.706,229.212 1949.706,222.929 1877.502,222.929 1871.225,222.929 1871.225,229.212 1871.225,385.389 1871.225,391.668 "/>
<polygon fill="#FFFFFF" points="1805.307,373.617 1805.307,367.338 1805.307,247.259 1805.307,240.985 1799.023,240.985 
	1744.872,240.985 1744.872,247.259 1799.023,247.259 1799.023,367.338 1744.872,367.338 1744.872,373.617 1799.023,373.617 "/>
<polygon fill="#FFFFFF" points="1787.251,355.564 1787.251,349.289 1787.251,265.311 1787.251,259.033 1780.975,259.033 
	1744.872,259.033 1744.872,265.311 1780.975,265.311 1780.975,349.289 1744.872,349.289 1744.872,355.564 1780.975,355.564 "/>
<polygon fill="#FFFFFF" points="1769.194,337.517 1769.194,331.241 1769.194,283.36 1769.194,277.084 1762.92,277.084 
	1744.872,277.084 1744.872,283.36 1762.92,283.36 1762.92,331.241 1744.872,331.241 1744.872,337.517 1762.92,337.517 "/>
<rect x="1744.872" y="295.137" fill="#FFFFFF" width="6.277" height="24.331"/>
<path fill="#FFFFFF" d="M1961.481,186.829H1733.1h-6.283v6.278v228.385v6.281h54.158h18.049h162.458h6.281V186.829H1961.481z
	 M1961.481,403.441h-102.022V211.16h102.022V403.441z M1733.1,211.16h102.022v192.281H1733.1V211.16z M1799.023,421.492h-18.049
	H1733.1v-11.771h102.022h6.28v-6.279V211.16v-6.282h-6.28H1733.1v-11.771h228.382v11.771h-102.022h-6.284v6.282v192.281v6.279h6.284
	h102.022v11.771H1799.023z"/>
<polygon fill="#FFFFFF" points="1817.076,222.929 1744.872,222.929 1744.872,229.212 1817.076,229.212 1817.076,385.389 
	1744.872,385.389 1744.872,391.668 1817.076,391.668 1823.355,391.668 1823.355,385.389 1823.355,229.212 1823.355,222.929 "/>
<rect x="1662.96" y="132.798" fill="none" stroke="#FFFFFF" stroke-width="6" stroke-miterlimit="10" width="380.228" height="380.223"/>
<polyline fill="none" stroke="#FFFFFF" stroke-width="6" stroke-miterlimit="10" points="2118.146,189.687 2190.25,189.687 
	2203.396,171.632 2408.976,171.632 "/>
<polyline fill="none" stroke="#FFFFFF" stroke-width="6" stroke-miterlimit="10" points="2118.146,207.238 2202.246,207.238 
	2214.348,189.934 2408.976,189.934 "/>
<polyline fill="none" stroke="#FFFFFF" stroke-width="6" stroke-miterlimit="10" points="2118.146,226.128 2333.113,226.128 
	2343.545,207.405 2408.976,207.405 "/>
<polyline fill="none" stroke="#FFFFFF" stroke-width="6" stroke-miterlimit="10" points="2118.146,388.248 2245.116,388.248 
	2256.256,370.195 2408.976,370.195 "/>
<polyline fill="none" stroke="#FFFFFF" stroke-width="6" stroke-miterlimit="10" points="2118.146,370.195 2234.771,370.195 
	2245.913,351.82 2408.976,351.82 "/>
<polyline fill="none" stroke="#FFFFFF" stroke-width="6" stroke-miterlimit="10" points="2117.77,406.299 2260.303,406.299 
	2271.447,388.299 2408.976,388.299 "/>
<polyline fill="none" stroke="#FFFFFF" stroke-width="6" stroke-miterlimit="10" points="2118.146,298.077 2328.128,298.077 
	2339.271,315.729 2408.976,315.729 "/>
<polyline fill="none" stroke="#FFFFFF" stroke-width="6" stroke-miterlimit="10" points="2118.146,315.838 2312.052,315.838 
	2322.842,334.068 2408.976,334.068 "/>
<polyline fill="none" stroke="#FFFFFF" stroke-width="6" stroke-miterlimit="10" points="2118.146,333.727 2300.62,333.727 
	2344.451,406.334 2408.976,406.334 "/>
<polyline fill="none" stroke="#FFFFFF" stroke-width="6" stroke-miterlimit="10" points="2118.146,351.828 2289.188,351.828 
	2334.628,424.664 2408.976,424.664 "/>
<polyline fill="none" stroke="#FFFFFF" stroke-width="6" stroke-miterlimit="10" points="2118.146,261.728 2333.113,261.728 
	2355.688,298.077 2408.976,298.077 "/>
<polyline fill="none" stroke="#FFFFFF" stroke-width="6" stroke-miterlimit="10" points="2118.146,279.637 2371.711,279.637 
	2382.678,261.742 2408.976,261.742 "/>
<polyline fill="none" stroke="#FFFFFF" stroke-width="6" stroke-miterlimit="10" points="2117.773,424.35 2315.317,424.35 
	2326.458,442.063 2408.976,442.063 "/>
<polyline fill="none" stroke="#FFFFFF" stroke-width="6" stroke-miterlimit="10" points="2118.146,243.591 2344.551,243.591 
	2355.334,225.673 2408.976,225.932 "/>
<line fill="none" stroke="#FFFFFF" stroke-width="6" stroke-miterlimit="10" x1="1683.807" y1="610.936" x2="1696.231" y2="610.936"/>
<g>
	<rect x="307.774" y="169.371" fill="none" width="893.738" height="28.342"/>
	<text transform="matrix(1 0 0 1 307.7749 189.6611)" fill="#FFFFFF" font-family="'MyriadPro-Regular'" font-size="28.5791">Работаем удалённо по всей территории Российской Федерации</text>
</g>
<line fill="none" stroke="#FFFFFF" stroke-width="6" stroke-miterlimit="10" x1="1892.009" y1="60.149" x2="1892.009" y2="0"/>
<line fill="none" stroke="#FFFFFF" stroke-width="6" stroke-miterlimit="10" x1="1874.519" y1="60.149" x2="1874.519" y2="0"/>
<line fill="none" stroke="#FFFFFF" stroke-width="6" stroke-miterlimit="10" x1="1856.762" y1="59.987" x2="1856.762" y2="0"/>
<line fill="none" stroke="#FFFFFF" stroke-width="6" stroke-miterlimit="10" x1="1911.063" y1="60.149" x2="1911.063" y2="0"/>
<line fill="none" stroke="#FFFFFF" stroke-width="6" stroke-miterlimit="10" x1="1929.161" y1="59.999" x2="1929.161" y2="0"/>
<line fill="none" stroke="#FFFFFF" stroke-width="6" stroke-miterlimit="10" x1="1946.31" y1="60.149" x2="1946.31" y2="0"/>
<line fill="none" stroke="#FFFFFF" stroke-width="6" stroke-miterlimit="10" x1="1964.905" y1="59.985" x2="1964.905" y2="0"/>
<line fill="none" stroke="#FFFFFF" stroke-width="6" stroke-miterlimit="10" x1="1730.241" y1="59.836" x2="1730.241" y2="0"/>
<line fill="none" stroke="#FFFFFF" stroke-width="6" stroke-miterlimit="10" x1="1748.162" y1="60.149" x2="1748.162" y2="0"/>
<line fill="none" stroke="#FFFFFF" stroke-width="6" stroke-miterlimit="10" x1="1839.071" y1="60.149" x2="1839.071" y2="0"/>
<line fill="none" stroke="#FFFFFF" stroke-width="6" stroke-miterlimit="10" x1="1820.497" y1="59.999" x2="1820.497" y2="0"/>
<line fill="none" stroke="#FFFFFF" stroke-width="6" stroke-miterlimit="10" x1="1802.448" y1="59.998" x2="1802.448" y2="0"/>
<line fill="none" stroke="#FFFFFF" stroke-width="6" stroke-miterlimit="10" x1="1784.36" y1="60.149" x2="1784.36" y2="0"/>
<line fill="none" stroke="#FFFFFF" stroke-width="6" stroke-miterlimit="10" x1="1766.336" y1="60.149" x2="1766.336" y2="0"/>
<polyline fill="none" stroke="#FFFFFF" stroke-width="6" stroke-miterlimit="10" points="1588.797,297.738 1172.5,297.738 
	1110.37,406.299 1054.165,406.299 1022.729,352.146 807.432,352.146 786.473,388.248 591.184,388.248 492.585,225.79 
	154.399,225.788 131.536,279.4 55.801,279.637 34.843,243.843 2.542,243.843 "/>
<polyline fill="none" stroke="#FFFFFF" stroke-width="6" stroke-miterlimit="10" points="1589.542,315.838 1541.887,315.838 
	1529.054,297.738 1442.455,297.738 1415.452,334.099 930.414,334.099 914.338,315.838 378.134,315.973 360.169,297.738 
	43.623,297.738 22.936,261.892 2.542,261.892 "/>
<polyline fill="none" stroke="#FFFFFF" stroke-width="6" stroke-miterlimit="10" points="1589.544,334.099 1496.758,334.099 
	1486.375,352.146 1048.926,352.146 1013.201,297.738 488.06,297.738 442.333,352.146 146.54,352.146 123.677,388.248 
	36.511,388.248 2.542,334.099 "/>
<polyline fill="none" stroke="#FFFFFF" stroke-width="6" stroke-miterlimit="10" points="1589.542,279.637 1358.627,279.637 
	1335.702,243.843 1183.247,243.843 1108.227,370.195 "/>
<polyline fill="none" stroke="#FFFFFF" stroke-width="6" stroke-miterlimit="10" points="1589.536,261.892 1304.709,261.892 
	1293.276,279.637 1056.07,279.637 1016.774,225.79 "/>
<polyline fill="none" stroke="#FFFFFF" stroke-width="6" stroke-miterlimit="10" points="1589.536,243.843 1392.589,243.843 
	1368.534,207.238 1181.342,207.238 1159.311,243.843 602.015,243.843 585.943,261.892 363.027,261.892 342.307,225.788 
	288.006,225.788 265.859,189.687 2.542,189.687 "/>
<polyline fill="none" stroke="#FFFFFF" stroke-width="6" stroke-miterlimit="10" points="1589.536,225.788 1303.997,225.788 
	1278.986,261.892 658.925,261.892 645.007,279.637 222.036,279.637 211.557,261.892 91.525,261.892 58.183,207.238 2.93,207.238 "/>
<polyline fill="none" stroke="#FFFFFF" stroke-width="6" stroke-miterlimit="10" points="1589.291,207.238 1394.558,207.238 
	1383.301,189.687 1170.386,189.687 1147.048,225.788 593.803,225.788 578.798,243.843 57.795,243.843 46.482,225.788 2.542,225.788 
	"/>
<polyline fill="none" stroke="#FFFFFF" stroke-width="6" stroke-miterlimit="10" points="1589.291,189.687 1408.284,189.687 
	1397.325,171.632 1158.925,171.632 1135.702,207.238 300.916,207.238 279.642,171.632 2.93,171.632 "/>
<polyline fill="none" stroke="#FFFFFF" stroke-width="6" stroke-miterlimit="10" points="1589.542,352.146 1538.992,352.146 
	1515.48,315.838 1051.068,315.838 1027.491,279.637 667.395,279.637 641.197,315.838 46.751,315.838 8.646,370.195 2.542,370.195 
	"/>
<polyline fill="none" stroke="#FFFFFF" stroke-width="6" stroke-miterlimit="10" points="1589.536,370.195 818.149,370.195 
	776.709,442.063 309.441,442.063 298.724,424.35 2.542,424.35 "/>
<polyline fill="none" stroke="#FFFFFF" stroke-width="6" stroke-miterlimit="10" points="1589.536,388.248 944.255,388.248 
	900.314,334.099 57.589,334.099 20.792,388.248 2.542,388.248 "/>
<polyline fill="none" stroke="#FFFFFF" stroke-width="6" stroke-miterlimit="10" points="1589.536,406.299 1397.376,406.299 
	1383.301,424.35 1038.923,424.35 1028.92,406.299 539.35,406.299 518.782,370.195 157.257,370.195 134.394,406.299 2.93,406.299 "/>
<polyline fill="none" stroke="#FFFFFF" stroke-width="6" stroke-miterlimit="10" points="1589.536,424.35 1412.825,424.35 
	1397.376,442 1023.204,442.063 1014.501,424.35 526.748,424.35 505.922,388.248 167.349,388.248 134.959,442.063 2.542,442.063 "/>
</svg>
