<?xml version="1.0" encoding="utf-8"?>
<!-- Generator: Adobe Illustrator 15.0.2, SVG Export Plug-In  -->
<!DOCTYPE svg PUBLIC "-//W3C//DTD SVG 1.1//EN" "http://www.w3.org/Graphics/SVG/1.1/DTD/svg11.dtd" [
	<!ENTITY ns_flows "http://ns.adobe.com/Flows/1.0/">
]>
<svg version="1.1"
	 xmlns="http://www.w3.org/2000/svg" xmlns:xlink="http://www.w3.org/1999/xlink" xmlns:a="http://ns.adobe.com/AdobeSVGViewerExtensions/3.0/"
	 x="0px" y="0px" width="850px" height="255px" viewBox="1.342 -15.716 850 255" enable-background="new 1.342 -15.716 850 255"
	 xml:space="preserve">
<defs>
</defs>
<rect x="595.157" y="40.589" fill="none" stroke="#FFFFFF" stroke-width="2" stroke-miterlimit="10" width="4.548" height="6.366"/>
<rect x="596.717" y="30.183" fill="none" stroke="#FFFFFF" stroke-width="2" stroke-miterlimit="10" width="2.988" height="10.407"/>
<rect x="603.439" y="40.589" fill="none" stroke="#FFFFFF" stroke-width="2" stroke-miterlimit="10" width="4.546" height="6.366"/>
<rect x="605" y="30.183" fill="none" stroke="#FFFFFF" stroke-width="2" stroke-miterlimit="10" width="2.985" height="10.407"/>
<rect x="611.72" y="40.589" fill="none" stroke="#FFFFFF" stroke-width="2" stroke-miterlimit="10" width="4.546" height="6.366"/>
<rect x="613.279" y="30.183" fill="none" stroke="#FFFFFF" stroke-width="2" stroke-miterlimit="10" width="2.986" height="10.407"/>
<rect x="620.002" y="40.589" fill="none" stroke="#FFFFFF" stroke-width="2" stroke-miterlimit="10" width="4.546" height="6.366"/>
<rect x="621.561" y="30.183" fill="none" stroke="#FFFFFF" stroke-width="2" stroke-miterlimit="10" width="2.987" height="10.407"/>
<rect x="628.283" y="40.589" fill="none" stroke="#FFFFFF" stroke-width="2" stroke-miterlimit="10" width="4.546" height="6.366"/>
<rect x="629.842" y="30.183" fill="none" stroke="#FFFFFF" stroke-width="2" stroke-miterlimit="10" width="2.987" height="10.407"/>
<rect x="636.564" y="40.589" fill="none" stroke="#FFFFFF" stroke-width="2" stroke-miterlimit="10" width="4.547" height="6.366"/>
<rect x="638.123" y="30.183" fill="none" stroke="#FFFFFF" stroke-width="2" stroke-miterlimit="10" width="2.988" height="10.407"/>
<rect x="644.846" y="40.589" fill="none" stroke="#FFFFFF" stroke-width="2" stroke-miterlimit="10" width="4.547" height="6.366"/>
<rect x="646.403" y="30.183" fill="none" stroke="#FFFFFF" stroke-width="2" stroke-miterlimit="10" width="2.989" height="10.407"/>
<rect x="653.126" y="40.589" fill="none" stroke="#FFFFFF" stroke-width="2" stroke-miterlimit="10" width="4.548" height="6.366"/>
<rect x="654.686" y="30.183" fill="none" stroke="#FFFFFF" stroke-width="2" stroke-miterlimit="10" width="2.988" height="10.407"/>
<rect x="661.407" y="40.589" fill="none" stroke="#FFFFFF" stroke-width="2" stroke-miterlimit="10" width="4.546" height="6.366"/>
<rect x="662.968" y="30.183" fill="none" stroke="#FFFFFF" stroke-width="2" stroke-miterlimit="10" width="2.985" height="10.407"/>
<rect x="669.688" y="40.589" fill="none" stroke="#FFFFFF" stroke-width="2" stroke-miterlimit="10" width="4.547" height="6.366"/>
<rect x="671.249" y="30.183" fill="none" stroke="#FFFFFF" stroke-width="2" stroke-miterlimit="10" width="2.985" height="10.407"/>
<rect x="677.971" y="40.589" fill="none" stroke="#FFFFFF" stroke-width="2" stroke-miterlimit="10" width="4.546" height="6.366"/>
<rect x="679.529" y="30.183" fill="none" stroke="#FFFFFF" stroke-width="2" stroke-miterlimit="10" width="2.987" height="10.407"/>
<rect x="686.251" y="40.589" fill="none" stroke="#FFFFFF" stroke-width="2" stroke-miterlimit="10" width="4.546" height="6.366"/>
<rect x="687.81" y="30.183" fill="none" stroke="#FFFFFF" stroke-width="2" stroke-miterlimit="10" width="2.987" height="10.407"/>
<rect x="694.533" y="40.589" fill="none" stroke="#FFFFFF" stroke-width="2" stroke-miterlimit="10" width="4.547" height="6.366"/>
<rect x="696.092" y="30.183" fill="none" stroke="#FFFFFF" stroke-width="2" stroke-miterlimit="10" width="2.988" height="10.407"/>
<rect x="702.814" y="40.589" fill="none" stroke="#FFFFFF" stroke-width="2" stroke-miterlimit="10" width="4.546" height="6.366"/>
<rect x="704.372" y="30.183" fill="none" stroke="#FFFFFF" stroke-width="2" stroke-miterlimit="10" width="2.988" height="10.407"/>
<rect x="711.094" y="40.589" fill="none" stroke="#FFFFFF" stroke-width="2" stroke-miterlimit="10" width="4.547" height="6.366"/>
<rect x="712.653" y="30.183" fill="none" stroke="#FFFFFF" stroke-width="2" stroke-miterlimit="10" width="2.987" height="10.407"/>
<rect x="581.584" y="170.344" fill="none" stroke="#FFFFFF" stroke-width="2" stroke-miterlimit="10" width="6.366" height="4.546"/>
<rect x="571.179" y="170.344" fill="none" stroke="#FFFFFF" stroke-width="2" stroke-miterlimit="10" width="10.405" height="2.987"/>
<rect x="581.584" y="162.063" fill="none" stroke="#FFFFFF" stroke-width="2" stroke-miterlimit="10" width="6.366" height="4.546"/>
<rect x="571.179" y="162.063" fill="none" stroke="#FFFFFF" stroke-width="2" stroke-miterlimit="10" width="10.405" height="2.986"/>
<rect x="581.584" y="153.781" fill="none" stroke="#FFFFFF" stroke-width="2" stroke-miterlimit="10" width="6.366" height="4.547"/>
<rect x="571.179" y="153.781" fill="none" stroke="#FFFFFF" stroke-width="2" stroke-miterlimit="10" width="10.405" height="2.987"/>
<rect x="581.584" y="145.499" fill="none" stroke="#FFFFFF" stroke-width="2" stroke-miterlimit="10" width="6.366" height="4.547"/>
<rect x="571.179" y="145.499" fill="none" stroke="#FFFFFF" stroke-width="2" stroke-miterlimit="10" width="10.405" height="2.986"/>
<rect x="581.584" y="137.218" fill="none" stroke="#FFFFFF" stroke-width="2" stroke-miterlimit="10" width="6.366" height="4.548"/>
<rect x="571.179" y="137.218" fill="none" stroke="#FFFFFF" stroke-width="2" stroke-miterlimit="10" width="10.405" height="2.988"/>
<rect x="581.584" y="128.938" fill="none" stroke="#FFFFFF" stroke-width="2" stroke-miterlimit="10" width="6.366" height="4.546"/>
<rect x="571.179" y="128.938" fill="none" stroke="#FFFFFF" stroke-width="2" stroke-miterlimit="10" width="10.405" height="2.986"/>
<rect x="581.584" y="120.657" fill="none" stroke="#FFFFFF" stroke-width="2" stroke-miterlimit="10" width="6.366" height="4.546"/>
<rect x="571.179" y="120.657" fill="none" stroke="#FFFFFF" stroke-width="2" stroke-miterlimit="10" width="10.405" height="2.986"/>
<rect x="581.584" y="112.375" fill="none" stroke="#FFFFFF" stroke-width="2" stroke-miterlimit="10" width="6.366" height="4.546"/>
<rect x="571.179" y="112.375" fill="none" stroke="#FFFFFF" stroke-width="2" stroke-miterlimit="10" width="10.405" height="2.988"/>
<rect x="581.584" y="104.094" fill="none" stroke="#FFFFFF" stroke-width="2" stroke-miterlimit="10" width="6.366" height="4.546"/>
<rect x="571.179" y="104.094" fill="none" stroke="#FFFFFF" stroke-width="2" stroke-miterlimit="10" width="10.405" height="2.987"/>
<rect x="581.584" y="95.813" fill="none" stroke="#FFFFFF" stroke-width="2" stroke-miterlimit="10" width="6.366" height="4.546"/>
<rect x="571.179" y="95.813" fill="none" stroke="#FFFFFF" stroke-width="2" stroke-miterlimit="10" width="10.405" height="2.987"/>
<rect x="581.584" y="87.531" fill="none" stroke="#FFFFFF" stroke-width="2" stroke-miterlimit="10" width="6.366" height="4.546"/>
<rect x="571.179" y="87.531" fill="none" stroke="#FFFFFF" stroke-width="2" stroke-miterlimit="10" width="10.405" height="2.987"/>
<rect x="581.584" y="79.25" fill="none" stroke="#FFFFFF" stroke-width="2" stroke-miterlimit="10" width="6.366" height="4.546"/>
<rect x="571.179" y="79.25" fill="none" stroke="#FFFFFF" stroke-width="2" stroke-miterlimit="10" width="10.405" height="2.987"/>
<rect x="581.584" y="70.969" fill="none" stroke="#FFFFFF" stroke-width="2" stroke-miterlimit="10" width="6.366" height="4.546"/>
<rect x="571.179" y="70.969" fill="none" stroke="#FFFFFF" stroke-width="2" stroke-miterlimit="10" width="10.405" height="2.987"/>
<rect x="581.584" y="62.688" fill="none" stroke="#FFFFFF" stroke-width="2" stroke-miterlimit="10" width="6.366" height="4.547"/>
<rect x="571.179" y="62.688" fill="none" stroke="#FFFFFF" stroke-width="2" stroke-miterlimit="10" width="10.405" height="2.987"/>
<rect x="581.584" y="54.406" fill="none" stroke="#FFFFFF" stroke-width="2" stroke-miterlimit="10" width="6.366" height="4.547"/>
<rect x="571.179" y="54.406" fill="none" stroke="#FFFFFF" stroke-width="2" stroke-miterlimit="10" width="10.405" height="2.988"/>
<rect x="710.943" y="181.398" fill="none" stroke="#FFFFFF" stroke-width="2" stroke-miterlimit="10" width="4.546" height="6.365"/>
<rect x="710.943" y="187.764" fill="none" stroke="#FFFFFF" stroke-width="2" stroke-miterlimit="10" width="2.987" height="10.407"/>
<rect x="702.661" y="181.398" fill="none" stroke="#FFFFFF" stroke-width="2" stroke-miterlimit="10" width="4.549" height="6.365"/>
<rect x="702.661" y="187.764" fill="none" stroke="#FFFFFF" stroke-width="2" stroke-miterlimit="10" width="2.986" height="10.407"/>
<rect x="694.381" y="181.398" fill="none" stroke="#FFFFFF" stroke-width="2" stroke-miterlimit="10" width="4.547" height="6.365"/>
<rect x="694.381" y="187.764" fill="none" stroke="#FFFFFF" stroke-width="2" stroke-miterlimit="10" width="2.986" height="10.407"/>
<rect x="686.101" y="181.398" fill="none" stroke="#FFFFFF" stroke-width="2" stroke-miterlimit="10" width="4.546" height="6.365"/>
<rect x="686.101" y="187.764" fill="none" stroke="#FFFFFF" stroke-width="2" stroke-miterlimit="10" width="2.986" height="10.407"/>
<rect x="677.818" y="181.398" fill="none" stroke="#FFFFFF" stroke-width="2" stroke-miterlimit="10" width="4.546" height="6.365"/>
<rect x="677.818" y="187.764" fill="none" stroke="#FFFFFF" stroke-width="2" stroke-miterlimit="10" width="2.987" height="10.407"/>
<rect x="669.537" y="181.398" fill="none" stroke="#FFFFFF" stroke-width="2" stroke-miterlimit="10" width="4.546" height="6.365"/>
<rect x="669.537" y="187.764" fill="none" stroke="#FFFFFF" stroke-width="2" stroke-miterlimit="10" width="2.988" height="10.407"/>
<rect x="661.256" y="181.398" fill="none" stroke="#FFFFFF" stroke-width="2" stroke-miterlimit="10" width="4.547" height="6.365"/>
<rect x="661.256" y="187.764" fill="none" stroke="#FFFFFF" stroke-width="2" stroke-miterlimit="10" width="2.988" height="10.407"/>
<rect x="652.975" y="181.398" fill="none" stroke="#FFFFFF" stroke-width="2" stroke-miterlimit="10" width="4.546" height="6.365"/>
<rect x="652.975" y="187.764" fill="none" stroke="#FFFFFF" stroke-width="2" stroke-miterlimit="10" width="2.987" height="10.407"/>
<rect x="644.693" y="181.398" fill="none" stroke="#FFFFFF" stroke-width="2" stroke-miterlimit="10" width="4.547" height="6.365"/>
<rect x="644.693" y="187.764" fill="none" stroke="#FFFFFF" stroke-width="2" stroke-miterlimit="10" width="2.986" height="10.407"/>
<rect x="636.413" y="181.398" fill="none" stroke="#FFFFFF" stroke-width="2" stroke-miterlimit="10" width="4.547" height="6.365"/>
<rect x="636.413" y="187.764" fill="none" stroke="#FFFFFF" stroke-width="2" stroke-miterlimit="10" width="2.985" height="10.407"/>
<rect x="628.132" y="181.398" fill="none" stroke="#FFFFFF" stroke-width="2" stroke-miterlimit="10" width="4.546" height="6.365"/>
<rect x="628.132" y="187.764" fill="none" stroke="#FFFFFF" stroke-width="2" stroke-miterlimit="10" width="2.986" height="10.407"/>
<rect x="619.851" y="181.398" fill="none" stroke="#FFFFFF" stroke-width="2" stroke-miterlimit="10" width="4.546" height="6.365"/>
<rect x="619.851" y="187.764" fill="none" stroke="#FFFFFF" stroke-width="2" stroke-miterlimit="10" width="2.987" height="10.407"/>
<rect x="611.568" y="181.398" fill="none" stroke="#FFFFFF" stroke-width="2" stroke-miterlimit="10" width="4.546" height="6.365"/>
<rect x="611.568" y="187.764" fill="none" stroke="#FFFFFF" stroke-width="2" stroke-miterlimit="10" width="2.989" height="10.407"/>
<rect x="603.287" y="181.398" fill="none" stroke="#FFFFFF" stroke-width="2" stroke-miterlimit="10" width="4.547" height="6.365"/>
<rect x="603.287" y="187.764" fill="none" stroke="#FFFFFF" stroke-width="2" stroke-miterlimit="10" width="2.988" height="10.407"/>
<rect x="595.007" y="181.398" fill="none" stroke="#FFFFFF" stroke-width="2" stroke-miterlimit="10" width="4.546" height="6.365"/>
<rect x="595.007" y="187.764" fill="none" stroke="#FFFFFF" stroke-width="2" stroke-miterlimit="10" width="2.987" height="10.407"/>
<rect x="722.394" y="53.346" fill="none" stroke="#FFFFFF" stroke-width="2" stroke-miterlimit="10" width="6.366" height="4.546"/>
<rect x="728.76" y="54.904" fill="none" stroke="#FFFFFF" stroke-width="2" stroke-miterlimit="10" width="10.406" height="2.988"/>
<rect x="722.394" y="61.627" fill="none" stroke="#FFFFFF" stroke-width="2" stroke-miterlimit="10" width="6.366" height="4.547"/>
<rect x="728.76" y="63.187" fill="none" stroke="#FFFFFF" stroke-width="2" stroke-miterlimit="10" width="10.406" height="2.988"/>
<rect x="722.394" y="69.908" fill="none" stroke="#FFFFFF" stroke-width="2" stroke-miterlimit="10" width="6.366" height="4.546"/>
<rect x="728.76" y="71.468" fill="none" stroke="#FFFFFF" stroke-width="2" stroke-miterlimit="10" width="10.406" height="2.987"/>
<rect x="722.394" y="78.189" fill="none" stroke="#FFFFFF" stroke-width="2" stroke-miterlimit="10" width="6.366" height="4.546"/>
<rect x="728.76" y="79.749" fill="none" stroke="#FFFFFF" stroke-width="2" stroke-miterlimit="10" width="10.406" height="2.987"/>
<rect x="722.394" y="86.47" fill="none" stroke="#FFFFFF" stroke-width="2" stroke-miterlimit="10" width="6.366" height="4.547"/>
<rect x="728.76" y="88.029" fill="none" stroke="#FFFFFF" stroke-width="2" stroke-miterlimit="10" width="10.406" height="2.988"/>
<rect x="722.394" y="94.752" fill="none" stroke="#FFFFFF" stroke-width="2" stroke-miterlimit="10" width="6.366" height="4.547"/>
<rect x="728.76" y="96.311" fill="none" stroke="#FFFFFF" stroke-width="2" stroke-miterlimit="10" width="10.406" height="2.988"/>
<rect x="722.394" y="103.033" fill="none" stroke="#FFFFFF" stroke-width="2" stroke-miterlimit="10" width="6.366" height="4.546"/>
<rect x="728.76" y="104.592" fill="none" stroke="#FFFFFF" stroke-width="2" stroke-miterlimit="10" width="10.406" height="2.987"/>
<rect x="722.394" y="111.314" fill="none" stroke="#FFFFFF" stroke-width="2" stroke-miterlimit="10" width="6.366" height="4.546"/>
<rect x="728.76" y="112.873" fill="none" stroke="#FFFFFF" stroke-width="2" stroke-miterlimit="10" width="10.406" height="2.987"/>
<rect x="722.394" y="119.595" fill="none" stroke="#FFFFFF" stroke-width="2" stroke-miterlimit="10" width="6.366" height="4.548"/>
<rect x="728.76" y="121.155" fill="none" stroke="#FFFFFF" stroke-width="2" stroke-miterlimit="10" width="10.406" height="2.987"/>
<rect x="722.394" y="127.877" fill="none" stroke="#FFFFFF" stroke-width="2" stroke-miterlimit="10" width="6.366" height="4.546"/>
<rect x="728.76" y="129.436" fill="none" stroke="#FFFFFF" stroke-width="2" stroke-miterlimit="10" width="10.406" height="2.987"/>
<rect x="722.394" y="136.158" fill="none" stroke="#FFFFFF" stroke-width="2" stroke-miterlimit="10" width="6.366" height="4.545"/>
<rect x="728.76" y="137.717" fill="none" stroke="#FFFFFF" stroke-width="2" stroke-miterlimit="10" width="10.406" height="2.986"/>
<rect x="722.394" y="144.438" fill="none" stroke="#FFFFFF" stroke-width="2" stroke-miterlimit="10" width="6.366" height="4.548"/>
<rect x="728.76" y="145.998" fill="none" stroke="#FFFFFF" stroke-width="2" stroke-miterlimit="10" width="10.406" height="2.987"/>
<rect x="722.394" y="152.721" fill="none" stroke="#FFFFFF" stroke-width="2" stroke-miterlimit="10" width="6.366" height="4.546"/>
<rect x="728.76" y="154.279" fill="none" stroke="#FFFFFF" stroke-width="2" stroke-miterlimit="10" width="10.406" height="2.987"/>
<rect x="722.394" y="161.001" fill="none" stroke="#FFFFFF" stroke-width="2" stroke-miterlimit="10" width="6.366" height="4.548"/>
<rect x="728.76" y="162.561" fill="none" stroke="#FFFFFF" stroke-width="2" stroke-miterlimit="10" width="10.406" height="2.988"/>
<rect x="722.394" y="169.282" fill="none" stroke="#FFFFFF" stroke-width="2" stroke-miterlimit="10" width="6.366" height="4.547"/>
<rect x="728.76" y="170.842" fill="none" stroke="#FFFFFF" stroke-width="2" stroke-miterlimit="10" width="10.406" height="2.987"/>
<polygon fill="none" stroke="#FFFFFF" stroke-width="2" stroke-miterlimit="10" points="566.397,25.132 744.486,25.132 
	744.486,203.962 585.147,203.962 566.397,182.388 "/>
<polyline fill="none" stroke="#FFFFFF" stroke-width="2" stroke-miterlimit="10" points="689.087,203.962 689.087,212.449 
	697.367,212.449 697.367,223.663 677.818,223.663 677.818,212.449 689.087,212.449 "/>
<rect x="705.647" y="212.449" fill="none" stroke="#FFFFFF" stroke-width="2" stroke-miterlimit="10" width="38.839" height="11.214"/>
<rect x="599.715" y="208.374" fill="none" stroke="#FFFFFF" stroke-width="2" stroke-miterlimit="10" width="38.837" height="15.289"/>
<line fill="none" stroke="#FFFFFF" stroke-width="2" stroke-miterlimit="10" x1="725.577" y1="212.449" x2="725.577" y2="223.663"/>
<rect x="584.767" y="208.374" fill="none" stroke="#FFFFFF" stroke-width="2" stroke-miterlimit="10" width="10.555" height="15.289"/>
<polyline fill="none" stroke="#FFFFFF" stroke-width="2" stroke-miterlimit="10" points="748.875,175.455 748.875,156.308 
	798.791,156.308 798.791,175.455 748.875,175.455 "/>
<line fill="none" stroke="#FFFFFF" stroke-width="2" stroke-miterlimit="10" x1="748.898" y1="46.956" x2="744.486" y2="46.956"/>
<line fill="none" stroke="#FFFFFF" stroke-width="2" stroke-miterlimit="10" x1="755.623" y1="199.236" x2="744.486" y2="199.236"/>
<line fill="none" stroke="#FFFFFF" stroke-width="2" stroke-miterlimit="10" x1="702.368" y1="20.72" x2="702.368" y2="25.132"/>
<line fill="none" stroke="#FFFFFF" stroke-width="2" stroke-miterlimit="10" x1="590.043" y1="203.962" x2="590.043" y2="208.374"/>
<rect x="702.368" y="13.537" fill="none" stroke="#FFFFFF" stroke-width="2" stroke-miterlimit="10" width="42.118" height="7.73"/>
<polyline fill="none" stroke="#FFFFFF" stroke-width="2" stroke-miterlimit="10" points="744.486,181.896 748.898,181.896 
	748.898,199.236 767.926,199.236 767.926,175.889 "/>
<polyline fill="none" stroke="#FFFFFF" stroke-width="2" stroke-miterlimit="10" points="748.898,181.896 748.898,175.455 
	744.486,175.455 "/>
<polyline fill="none" stroke="#FFFFFF" stroke-width="2" stroke-miterlimit="10" points="748.898,187.902 767.926,187.902 
	771.969,187.902 "/>
<rect x="771.969" y="181.896" fill="none" stroke="#FFFFFF" stroke-width="2" stroke-miterlimit="10" width="26.822" height="11.384"/>
<rect x="749.942" y="203.962" fill="none" stroke="#FFFFFF" stroke-width="2" stroke-miterlimit="10" width="48.9" height="19.701"/>
<rect x="761.663" y="211.404" fill="none" stroke="#FFFFFF" stroke-width="2" stroke-miterlimit="10" width="25.46" height="7.409"/>
<rect x="749.942" y="203.962" fill="none" stroke="#FFFFFF" stroke-width="2" stroke-miterlimit="10" width="6.871" height="7.442"/>
<rect x="791.974" y="203.962" fill="none" stroke="#FFFFFF" stroke-width="2" stroke-miterlimit="10" width="6.869" height="7.442"/>
<rect x="748.875" y="13.537" fill="none" stroke="#FFFFFF" stroke-width="2" stroke-miterlimit="10" width="49.916" height="33.418"/>
<polygon fill="#FFFFFF" points="619.089,157.026 619.089,155.769 615.438,155.769 614.181,155.769 610.529,155.769 610.529,157.026 
	614.181,157.026 614.181,164.258 610.529,164.258 610.529,165.515 619.089,165.515 619.089,164.258 615.438,164.258 
	615.438,157.026 "/>
<path fill="#FFFFFF" d="M644.96,160.535c0,3.35-2.036,5.127-4.521,5.127c-2.57,0-4.375-1.992-4.375-4.939
	c0-3.091,1.921-5.111,4.52-5.111C643.242,155.611,644.96,157.646,644.96,160.535z M637.407,160.692c0,2.081,1.126,3.943,3.104,3.943
	c1.994,0,3.119-1.833,3.119-4.044c0-1.935-1.01-3.956-3.104-3.956C638.447,156.636,637.407,158.556,637.407,160.692z"/>
<path fill="#FFFFFF" d="M662.777,155.769h1.257v4.693h0.044c0.259-0.375,0.519-0.72,0.766-1.04l2.974-3.653h1.561l-3.523,4.131
	l3.798,5.603h-1.487l-3.206-4.779l-0.925,1.067v3.712h-1.257V155.769z"/>
<path fill="#FFFFFF" d="M691.188,165.462v-4.13l-3.075-5.602h1.43l1.372,2.685c0.375,0.736,0.663,1.329,0.969,2.009h0.026
	c0.276-0.637,0.608-1.272,0.983-2.009l1.4-2.685h1.431l-3.264,5.588v4.144H691.188z"/>
<polygon fill="#FFFFFF" points="667.971,85.209 667.971,87.428 667.971,129.886 667.971,132.106 670.194,132.106 689.339,132.106 
	689.339,129.886 670.194,129.886 670.194,87.428 689.339,87.428 689.339,85.209 670.194,85.209 "/>
<polygon fill="#FFFFFF" points="674.355,91.591 674.355,93.811 674.355,123.504 674.355,125.724 676.576,125.724 689.339,125.724 
	689.339,123.504 676.576,123.504 676.576,93.811 689.339,93.811 689.339,91.591 676.576,91.591 "/>
<polygon fill="#FFFFFF" points="680.739,97.973 680.739,100.192 680.739,117.123 680.739,119.342 682.959,119.342 689.339,119.342 
	689.339,117.123 682.959,117.123 682.959,100.192 689.339,100.192 689.339,97.973 682.959,97.973 "/>
<rect x="687.121" y="104.356" fill="#FFFFFF" width="2.218" height="8.603"/>
<polygon fill="#FFFFFF" points="663.809,138.488 689.339,138.488 689.339,136.269 663.809,136.269 663.809,81.046 689.339,81.046 
	689.339,78.825 663.809,78.825 661.59,78.825 661.59,81.046 661.59,136.269 661.59,138.488 "/>
<polygon fill="#FFFFFF" points="638.281,132.106 638.281,129.886 638.281,87.428 638.281,85.209 636.061,85.209 616.912,85.209 
	616.912,87.428 636.061,87.428 636.061,129.886 616.912,129.886 616.912,132.106 636.061,132.106 "/>
<polygon fill="#FFFFFF" points="631.898,125.724 631.898,123.504 631.898,93.811 631.898,91.591 629.679,91.591 616.912,91.591 
	616.912,93.811 629.679,93.811 629.679,123.504 616.912,123.504 616.912,125.724 629.679,125.724 "/>
<polygon fill="#FFFFFF" points="625.514,119.342 625.514,117.123 625.514,100.192 625.514,97.973 623.295,97.973 616.912,97.973 
	616.912,100.192 623.295,100.192 623.295,117.123 616.912,117.123 616.912,119.342 623.295,119.342 "/>
<rect x="616.912" y="104.356" fill="#FFFFFF" width="2.221" height="8.603"/>
<path fill="#FFFFFF" d="M693.504,66.06H612.75h-2.221v2.22v80.754v2.221h19.149h6.382h57.443h2.221V66.06H693.504z M693.504,142.652
	H657.43V74.664h36.074V142.652z M612.75,74.664h36.074v67.989H612.75V74.664z M636.061,149.034h-6.382H612.75v-4.162h36.074h2.221
	v-2.22V74.664v-2.222h-2.221H612.75V68.28h80.754v4.162H657.43h-2.222v2.222v67.989v2.22h2.222h36.074v4.162H636.061z"/>
<polygon fill="#FFFFFF" points="642.442,78.825 616.912,78.825 616.912,81.046 642.442,81.046 642.442,136.269 616.912,136.269 
	616.912,138.488 642.442,138.488 644.663,138.488 644.663,136.269 644.663,81.046 644.663,78.825 "/>
<rect x="587.95" y="46.956" fill="none" stroke="#FFFFFF" stroke-width="2" stroke-miterlimit="10" width="134.443" height="134.443"/>
<polyline fill="none" stroke="#FFFFFF" stroke-width="2" stroke-miterlimit="10" points="748.898,67.071 774.394,67.071 
	779.041,60.687 851.731,60.687 "/>
<polyline fill="none" stroke="#FFFFFF" stroke-width="2" stroke-miterlimit="10" points="748.898,73.277 778.635,73.277 
	782.914,67.158 851.731,67.158 "/>
<polyline fill="none" stroke="#FFFFFF" stroke-width="2" stroke-miterlimit="10" points="748.898,79.956 824.907,79.956 
	828.596,73.336 851.731,73.336 "/>
<polyline fill="none" stroke="#FFFFFF" stroke-width="2" stroke-miterlimit="10" points="748.898,137.279 793.792,137.279 
	797.732,130.896 851.731,130.896 "/>
<polyline fill="none" stroke="#FFFFFF" stroke-width="2" stroke-miterlimit="10" points="748.898,130.896 790.135,130.896 
	794.074,124.398 851.731,124.398 "/>
<polyline fill="none" stroke="#FFFFFF" stroke-width="2" stroke-miterlimit="10" points="748.765,143.662 799.163,143.662 
	803.103,137.297 851.731,137.297 "/>
<polyline fill="none" stroke="#FFFFFF" stroke-width="2" stroke-miterlimit="10" points="748.898,105.396 823.146,105.396 
	827.085,111.638 851.731,111.638 "/>
<polyline fill="none" stroke="#FFFFFF" stroke-width="2" stroke-miterlimit="10" points="748.898,111.676 817.46,111.676 
	821.276,118.122 851.731,118.122 "/>
<polyline fill="none" stroke="#FFFFFF" stroke-width="2" stroke-miterlimit="10" points="748.898,118.002 813.418,118.002 
	828.917,143.674 851.731,143.674 "/>
<polyline fill="none" stroke="#FFFFFF" stroke-width="2" stroke-miterlimit="10" points="748.898,124.401 809.376,124.401 
	825.443,150.155 851.731,150.155 "/>
<polyline fill="none" stroke="#FFFFFF" stroke-width="2" stroke-miterlimit="10" points="748.898,92.543 824.907,92.543 
	832.89,105.396 851.731,105.396 "/>
<polyline fill="none" stroke="#FFFFFF" stroke-width="2" stroke-miterlimit="10" points="748.898,98.876 838.555,98.876 
	842.433,92.548 851.731,92.548 "/>
<polyline fill="none" stroke="#FFFFFF" stroke-width="2" stroke-miterlimit="10" points="748.766,150.045 818.615,150.045 
	822.555,156.308 851.731,156.308 "/>
<polyline fill="none" stroke="#FFFFFF" stroke-width="2" stroke-miterlimit="10" points="748.898,86.13 828.951,86.13 
	832.765,79.795 851.731,79.887 "/>
<line fill="none" stroke="#FFFFFF" stroke-width="2" stroke-miterlimit="10" x1="595.321" y1="216.019" x2="599.715" y2="216.019"/>
<line fill="none" stroke="#FFFFFF" stroke-width="2" stroke-miterlimit="10" x1="668.938" y1="21.268" x2="668.938" y2="0"/>
<line fill="none" stroke="#FFFFFF" stroke-width="2" stroke-miterlimit="10" x1="662.754" y1="21.268" x2="662.754" y2="0"/>
<line fill="none" stroke="#FFFFFF" stroke-width="2" stroke-miterlimit="10" x1="656.476" y1="21.21" x2="656.476" y2="0"/>
<line fill="none" stroke="#FFFFFF" stroke-width="2" stroke-miterlimit="10" x1="675.676" y1="21.268" x2="675.676" y2="0"/>
<line fill="none" stroke="#FFFFFF" stroke-width="2" stroke-miterlimit="10" x1="682.076" y1="21.215" x2="682.076" y2="0"/>
<line fill="none" stroke="#FFFFFF" stroke-width="2" stroke-miterlimit="10" x1="688.139" y1="21.268" x2="688.139" y2="0"/>
<line fill="none" stroke="#FFFFFF" stroke-width="2" stroke-miterlimit="10" x1="694.714" y1="21.21" x2="694.714" y2="0"/>
<line fill="none" stroke="#FFFFFF" stroke-width="2" stroke-miterlimit="10" x1="611.739" y1="21.157" x2="611.739" y2="0"/>
<line fill="none" stroke="#FFFFFF" stroke-width="2" stroke-miterlimit="10" x1="618.076" y1="21.268" x2="618.076" y2="0"/>
<line fill="none" stroke="#FFFFFF" stroke-width="2" stroke-miterlimit="10" x1="650.22" y1="21.268" x2="650.22" y2="0"/>
<line fill="none" stroke="#FFFFFF" stroke-width="2" stroke-miterlimit="10" x1="643.653" y1="21.215" x2="643.653" y2="0"/>
<line fill="none" stroke="#FFFFFF" stroke-width="2" stroke-miterlimit="10" x1="637.271" y1="21.214" x2="637.271" y2="0"/>
<line fill="none" stroke="#FFFFFF" stroke-width="2" stroke-miterlimit="10" x1="630.875" y1="21.268" x2="630.875" y2="0"/>
<line fill="none" stroke="#FFFFFF" stroke-width="2" stroke-miterlimit="10" x1="624.503" y1="21.268" x2="624.503" y2="0"/>
<polyline fill="none" stroke="#FFFFFF" stroke-width="2" stroke-miterlimit="10" points="561.727,105.276 414.529,105.276 
	392.561,143.662 372.688,143.662 361.572,124.515 285.446,124.515 278.035,137.279 208.983,137.279 174.12,79.836 54.542,79.835 
	46.458,98.792 19.679,98.876 12.269,86.22 0.847,86.22 "/>
<polyline fill="none" stroke="#FFFFFF" stroke-width="2" stroke-miterlimit="10" points="561.99,111.676 545.141,111.676 
	540.603,105.276 509.982,105.276 500.435,118.133 328.931,118.133 323.247,111.676 133.652,111.724 127.3,105.276 15.373,105.276 
	8.058,92.601 0.847,92.601 "/>
<polyline fill="none" stroke="#FFFFFF" stroke-width="2" stroke-miterlimit="10" points="561.992,118.133 529.184,118.133 
	525.512,124.515 370.835,124.515 358.204,105.276 172.521,105.276 156.352,124.515 51.763,124.515 43.679,137.279 12.858,137.279 
	0.847,118.133 "/>
<polyline fill="none" stroke="#FFFFFF" stroke-width="2" stroke-miterlimit="10" points="561.99,98.876 480.341,98.876 
	472.235,86.22 418.33,86.22 391.803,130.896 "/>
<polyline fill="none" stroke="#FFFFFF" stroke-width="2" stroke-miterlimit="10" points="561.988,92.601 461.277,92.601 
	457.234,98.876 373.361,98.876 359.467,79.836 "/>
<polyline fill="none" stroke="#FFFFFF" stroke-width="2" stroke-miterlimit="10" points="561.988,86.22 492.351,86.22 
	483.845,73.277 417.656,73.277 409.866,86.22 212.813,86.22 207.13,92.601 128.31,92.601 120.984,79.835 101.784,79.835 
	93.953,67.071 0.847,67.071 "/>
<polyline fill="none" stroke="#FFFFFF" stroke-width="2" stroke-miterlimit="10" points="561.988,79.835 461.025,79.835 
	452.182,92.601 232.936,92.601 228.015,98.876 78.458,98.876 74.752,92.601 32.311,92.601 20.521,73.277 0.984,73.277 "/>
<polyline fill="none" stroke="#FFFFFF" stroke-width="2" stroke-miterlimit="10" points="561.901,73.277 493.046,73.277 
	489.066,67.071 413.782,67.071 405.53,79.835 209.91,79.835 204.604,86.22 20.384,86.22 16.384,79.835 0.847,79.835 "/>
<polyline fill="none" stroke="#FFFFFF" stroke-width="2" stroke-miterlimit="10" points="561.901,67.071 497.9,67.071 
	494.024,60.687 409.729,60.687 401.519,73.277 106.348,73.277 98.827,60.687 0.984,60.687 "/>
<polyline fill="none" stroke="#FFFFFF" stroke-width="2" stroke-miterlimit="10" points="561.99,124.515 544.116,124.515 
	535.803,111.676 371.593,111.676 363.256,98.876 235.93,98.876 226.667,111.676 16.479,111.676 3.005,130.896 0.847,130.896 "/>
<polyline fill="none" stroke="#FFFFFF" stroke-width="2" stroke-miterlimit="10" points="561.988,130.896 289.235,130.896 
	274.583,156.308 109.363,156.308 105.573,150.045 0.847,150.045 "/>
<polyline fill="none" stroke="#FFFFFF" stroke-width="2" stroke-miterlimit="10" points="561.988,137.279 333.825,137.279 
	318.288,118.133 20.311,118.133 7.3,137.279 0.847,137.279 "/>
<polyline fill="none" stroke="#FFFFFF" stroke-width="2" stroke-miterlimit="10" points="561.988,143.662 494.042,143.662 
	489.066,150.045 367.298,150.045 363.761,143.662 190.656,143.662 183.384,130.896 55.552,130.896 47.469,143.662 0.984,143.662 "/>
<polyline fill="none" stroke="#FFFFFF" stroke-width="2" stroke-miterlimit="10" points="561.988,150.045 499.506,150.045 
	494.042,156.286 361.74,156.308 358.663,150.045 186.2,150.045 178.836,137.279 59.121,137.279 47.668,156.308 0.847,156.308 "/>
</svg>
