<?xml version="1.0" encoding="utf-8"?>
<!-- Generator: Adobe Illustrator 15.0.2, SVG Export Plug-In  -->
<!DOCTYPE svg PUBLIC "-//W3C//DTD SVG 1.1//EN" "http://www.w3.org/Graphics/SVG/1.1/DTD/svg11.dtd" [
	<!ENTITY ns_flows "http://ns.adobe.com/Flows/1.0/">
]>
<svg version="1.1"
	 xmlns="http://www.w3.org/2000/svg" xmlns:xlink="http://www.w3.org/1999/xlink" xmlns:a="http://ns.adobe.com/AdobeSVGViewerExtensions/3.0/"
	 x="0px" y="0px" width="850px" height="255px" viewBox="0.847 -71.466 850 255" enable-background="new 0.847 -71.466 850 255"
	 xml:space="preserve">
<defs>
</defs>
<polyline fill="none" stroke="#FFFFFF" stroke-width="2" stroke-miterlimit="10" points="561.733,7.381 751.725,7.381 756.371,1 
	851.237,1 "/>
<polyline fill="none" stroke="#FFFFFF" stroke-width="2" stroke-miterlimit="10" points="561.733,13.583 755.963,13.583 
	760.24,7.468 851.237,7.468 "/>
<polyline fill="none" stroke="#FFFFFF" stroke-width="2" stroke-miterlimit="10" points="561.733,20.258 802.209,20.258 
	805.896,13.642 851.237,13.642 "/>
<polyline fill="none" stroke="#FFFFFF" stroke-width="2" stroke-miterlimit="10" points="561.733,77.547 771.113,77.547 
	775.05,71.168 851.237,71.168 "/>
<polyline fill="none" stroke="#FFFFFF" stroke-width="2" stroke-miterlimit="10" points="561.733,71.168 767.458,71.168 
	771.395,64.675 851.237,64.675 "/>
<polyline fill="none" stroke="#FFFFFF" stroke-width="2" stroke-miterlimit="10" points="561.599,83.927 776.48,83.927 
	780.419,77.567 851.237,77.567 "/>
<polyline fill="none" stroke="#FFFFFF" stroke-width="2" stroke-miterlimit="10" points="561.733,45.684 800.448,45.684 
	804.387,51.922 851.237,51.922 "/>
<polyline fill="none" stroke="#FFFFFF" stroke-width="2" stroke-miterlimit="10" points="561.733,51.96 794.767,51.96 
	798.581,58.403 851.237,58.403 "/>
<polyline fill="none" stroke="#FFFFFF" stroke-width="2" stroke-miterlimit="10" points="561.733,58.282 790.728,58.282 
	806.218,83.94 851.237,83.94 "/>
<polyline fill="none" stroke="#FFFFFF" stroke-width="2" stroke-miterlimit="10" points="561.733,64.679 786.688,64.679 
	802.747,90.417 851.237,90.417 "/>
<polyline fill="none" stroke="#FFFFFF" stroke-width="2" stroke-miterlimit="10" points="561.733,32.838 802.209,32.838 
	810.189,45.684 851.237,45.684 "/>
<polyline fill="none" stroke="#FFFFFF" stroke-width="2" stroke-miterlimit="10" points="561.733,39.167 815.85,39.167 
	819.726,32.843 851.237,32.843 "/>
<polyline fill="none" stroke="#FFFFFF" stroke-width="2" stroke-miterlimit="10" points="561.601,90.306 795.921,90.306 
	799.859,96.565 851.237,96.565 "/>
<polyline fill="none" stroke="#FFFFFF" stroke-width="2" stroke-miterlimit="10" points="561.733,26.43 806.251,26.43 
	810.062,20.098 851.237,20.189 "/>
<polyline fill="none" stroke="#FFFFFF" stroke-width="2" stroke-miterlimit="10" points="561.402,45.563 414.289,45.563 
	392.333,83.927 372.472,83.927 361.362,64.792 285.281,64.792 277.874,77.547 208.862,77.547 174.02,20.138 99.958,20.137 
	91.878,39.083 19.668,39.167 12.262,26.519 0.847,26.519 "/>
<polyline fill="none" stroke="#FFFFFF" stroke-width="2" stroke-miterlimit="10" points="561.664,51.96 544.825,51.96 
	540.29,45.563 509.686,45.563 500.145,58.414 328.74,58.414 323.059,51.96 133.575,52.007 127.226,45.563 15.364,45.563 
	8.054,32.896 0.847,32.896 "/>
<polyline fill="none" stroke="#FFFFFF" stroke-width="2" stroke-miterlimit="10" points="561.666,58.414 528.876,58.414 
	525.208,64.792 370.62,64.792 357.996,45.563 172.42,45.563 156.262,64.792 51.733,64.792 43.654,77.547 12.851,77.547 
	0.847,58.414 "/>
<polyline fill="none" stroke="#FFFFFF" stroke-width="2" stroke-miterlimit="10" points="561.664,39.167 480.063,39.167 
	471.961,26.519 418.087,26.519 391.576,71.168 "/>
<polyline fill="none" stroke="#FFFFFF" stroke-width="2" stroke-miterlimit="10" points="561.662,32.896 461.01,32.896 
	456.97,39.167 373.145,39.167 359.258,20.138 "/>
<polyline fill="none" stroke="#FFFFFF" stroke-width="2" stroke-miterlimit="10" points="561.662,26.519 492.065,26.519 
	483.564,13.583 417.414,13.583 409.628,26.519 212.69,26.519 207.011,32.896 84.809,32.896 77.487,20.137 42.139,20.137 
	34.313,7.381 0.847,7.381 "/>
<polyline fill="none" stroke="#FFFFFF" stroke-width="2" stroke-miterlimit="10" points="561.662,20.137 460.757,20.137 
	451.92,32.896 232.801,32.896 227.882,39.167 78.412,39.167 74.709,32.896 32.292,32.896 20.51,13.583 0.984,13.583 "/>
<polyline fill="none" stroke="#FFFFFF" stroke-width="2" stroke-miterlimit="10" points="561.576,13.583 492.759,13.583 
	488.783,7.381 413.542,7.381 405.294,20.137 209.788,20.137 204.486,26.519 20.373,26.519 16.375,20.137 0.847,20.137 "/>
<polyline fill="none" stroke="#FFFFFF" stroke-width="2" stroke-miterlimit="10" points="561.576,7.381 497.612,7.381 493.738,1 
	409.492,1 401.285,13.583 46.701,13.583 39.183,1 0.984,1 "/>
<polyline fill="none" stroke="#FFFFFF" stroke-width="2" stroke-miterlimit="10" points="561.664,64.792 543.801,64.792 
	535.493,51.96 371.377,51.96 363.045,39.167 235.794,39.167 226.536,51.96 16.47,51.96 3.004,71.168 0.847,71.168 "/>
<polyline fill="none" stroke="#FFFFFF" stroke-width="2" stroke-miterlimit="10" points="561.662,71.168 289.068,71.168 
	274.424,96.565 67.893,96.565 64.105,90.306 0.847,90.306 "/>
<polyline fill="none" stroke="#FFFFFF" stroke-width="2" stroke-miterlimit="10" points="561.662,77.547 333.631,77.547 
	318.104,58.414 20.3,58.414 7.296,77.547 0.847,77.547 "/>
<polyline fill="none" stroke="#FFFFFF" stroke-width="2" stroke-miterlimit="10" points="561.662,83.927 493.755,83.927 
	488.783,90.306 367.085,90.306 363.55,83.927 190.545,83.927 183.277,71.168 55.521,71.168 47.441,83.927 0.984,83.927 "/>
<polyline fill="none" stroke="#FFFFFF" stroke-width="2" stroke-miterlimit="10" points="561.662,90.306 499.215,90.306 
	493.755,96.543 361.531,96.565 358.455,90.306 186.092,90.306 178.732,77.547 59.087,77.547 47.641,96.565 0.847,96.565 "/>
</svg>
